#!OML:ASF X:\2005_08_12_Meinard\c3d\meinard.ASF
:FULLY-SPECIFIED
:DEGREES
820
root 9.09936 16.8935 -0.997787 -9.49051 -82.9368 -6.56597
lowerback 33.7684 3.23811 -2.11055
upperback 6.02979 2.06042 -4.46929
thorax -10.4995 0.683785 -4.38179
lowerneck -9.79236 -11.8023 -0.41582
upperneck -2.20646 -16.2997 13.0235
head 2.22679 -8.00764 3.39322
rclavicle -1.43125e-014 1.43125e-014
rhumerus 16.0838 -3.65423 -48.3787
rradius 64.841
rwrist 13.2162
rhand -16.2486 9.24454
rfingers 7.12502
rthumb 9.96032 -20.4998
lclavicle -1.43125e-014 1.43125e-014
lhumerus 54.1901 125.425 118.71
lradius 9.3051
lwrist -115.424
lhand -21.2391 -10.0179
lfingers 7.12502
lthumb 5.14348 19.8997
rfemur 28.7416 -11.0092 16.6322
rtibia 16.5603
rfoot -21.8457 -3.55954
rtoes -13.4855
lfemur -9.73511 1.90417 -18.5018
ltibia 31.926
lfoot -7.19231 10.8746
ltoes -17.9031
821
root 9.17552 16.8744 -1.01793 -9.88941 -83.0949 -6.17887
lowerback 33.8502 3.19152 -1.89884
upperback 5.97937 2.06377 -4.52719
thorax -10.5824 0.679217 -4.56373
lowerneck -9.82859 -11.6635 -0.400804
upperneck -2.1762 -16.118 13.0133
head 2.2285 -7.91438 3.39912
rclavicle -1.06151e-013 8.11041e-014
rhumerus 14.575 -2.40479 -50.1293
rradius 66.0933
rwrist 13.1876
rhand -15.5239 8.96245
rfingers 7.12502
rthumb 10.6594 -20.7472
lclavicle -1.06151e-013 8.11041e-014
lhumerus 59.0548 123.634 124.981
lradius 9.15757
lwrist -111.072
lhand -21.1853 -10.2269
lfingers 7.12502
lthumb 5.19541 19.6894
rfemur 29.1313 -10.7853 16.7977
rtibia 15.3668
rfoot -22.1995 -3.5557
rtoes -12.9592
lfemur -10.1217 1.95787 -18.485
ltibia 32.2109
lfoot -7.37876 11.0038
ltoes -18.046
822
root 9.25357 16.858 -1.03817 -10.2662 -83.2431 -5.80227
lowerback 33.9851 3.14491 -1.69701
upperback 5.91071 2.06371 -4.56738
thorax -10.707 0.672771 -4.72288
lowerneck -9.95078 -11.5247 -0.337142
upperneck -2.10853 -15.9433 12.9285
head 2.24581 -7.82093 3.36564
rclavicle -1.31198e-014 7.79236e-014
rhumerus 13.0605 -1.0352 -51.7283
rradius 67.1428
rwrist 13.0624
rhand -14.9758 8.5807
rfingers 7.12502
rthumb 11.1881 -21.101
lclavicle -1.31198e-014 7.79236e-014
lhumerus 64.3229 122.115 131.742
lradius 9.0764
lwrist -106.691
lhand -21.1209 -10.3687
lfingers 7.12502
lthumb 5.25763 19.5461
rfemur 29.4035 -10.6083 16.9373
rtibia 14.2991
rfoot -22.4728 -3.50938
rtoes -12.4263
lfemur -10.5148 2.07539 -18.4594
ltibia 32.465
lfoot -7.53899 11.0753
ltoes -18.0067
823
root 9.33492 16.8433 -1.05934 -10.3454 -83.3676 -5.74464
lowerback 34.2131 3.08092 -1.48375
upperback 5.82428 2.04569 -4.57695
thorax -10.889 0.656696 -4.85228
lowerneck -10.0862 -11.3814 -0.286809
upperneck -2.04667 -15.7617 12.8512
head 2.26542 -7.72373 3.3368
rclavicle -1.27222e-014 -3.97569e-014
rhumerus 11.5116 0.392479 -53.3119
rradius 68.0343
rwrist 12.8815
rhand -14.5714 8.15945
rfingers 7.12502
rthumb 11.5782 -21.5007
lclavicle -1.27222e-014 -3.97569e-014
lhumerus 69.9376 120.95 138.953
lradius 9.0923
lwrist -102.349
lhand -21.1447 -10.4566
lfingers 7.12502
lthumb 5.2346 19.4587
rfemur 29.5514 -10.4569 17.1336
rtibia 13.4095
rfoot -22.7268 -3.55737
rtoes -12.2084
lfemur -10.8801 2.22542 -18.3872
ltibia 32.6766
lfoot -7.70303 11.0818
ltoes -17.8928
824
root 9.41772 16.8315 -1.08145 -10.4838 -83.479 -5.64004
lowerback 34.4922 3.01695 -1.26638
upperback 5.74248 2.02689 -4.58609
thorax -11.0855 0.63882 -4.98458
lowerneck -10.3344 -11.254 -0.246757
upperneck -1.92521 -15.6091 12.7546
head 2.32646 -7.63418 3.29302
rclavicle 3.65764e-014 1.90833e-014
rhumerus 9.91322 1.74054 -55.0092
rradius 68.7737
rwrist 12.8304
rhand -14.3677 7.67896
rfingers 7.12502
rthumb 11.7746 -21.9701
lclavicle 3.65764e-014 1.90833e-014
lhumerus 75.7864 120.053 146.536
lradius 9.28918
lwrist -97.8776
lhand -21.0475 -10.6227
lfingers 7.12502
lthumb 5.32844 19.2903
rfemur 29.5701 -10.3058 17.3312
rtibia 12.748
rfoot -22.956 -3.65557
rtoes -12.0964
lfemur -11.2099 2.42803 -18.3194
ltibia 32.8432
lfoot -7.86565 11.0418
ltoes -17.5041
825
root 9.50277 16.8205 -1.10375 -10.6467 -83.556 -5.51764
lowerback 34.8468 2.94382 -1.05212
upperback 5.63612 1.99891 -4.56235
thorax -11.3395 0.61595 -5.07961
lowerneck -10.5414 -11.1458 -0.321612
upperneck -1.83125 -15.4652 12.685
head 2.38539 -7.55034 3.27973
rclavicle 2.98177e-014 -5.88403e-014
rhumerus 8.25282 3.01832 -56.749
rradius 69.3442
rwrist 12.8538
rhand -14.3395 7.27938
rfingers 7.12502
rthumb 11.8018 -22.3681
lclavicle 2.98177e-014 -5.88403e-014
lhumerus 81.8364 119.547 154.447
lradius 9.55491
lwrist -93.3885
lhand -20.993 -10.7241
lfingers 7.12502
lthumb 5.38109 19.1876
rfemur 29.4731 -10.2333 17.4911
rtibia 12.3099
rfoot -23.1887 -3.72433
rtoes -12.1211
lfemur -11.5188 2.60847 -18.2607
ltibia 32.9718
lfoot -8.04822 10.9964
ltoes -16.9254
826
root 9.58827 16.8108 -1.12671 -10.6395 -83.6109 -5.56068
lowerback 35.2001 2.85824 -0.812313
upperback 5.54659 1.96877 -4.52503
thorax -11.5733 0.59099 -5.17168
lowerneck -10.7714 -11.0589 -0.48309
upperneck -1.74333 -15.3419 12.6628
head 2.46107 -7.47505 3.29411
rclavicle 5.1684e-015 3.02153e-014
rhumerus 6.60243 4.21951 -58.5278
rradius 69.7232
rwrist 12.9287
rhand -14.5059 6.87153
rfingers 7.12502
rthumb 11.6413 -22.7851
lclavicle 5.1684e-015 3.02153e-014
lhumerus 87.9643 119.323 162.497
lradius 9.83931
lwrist -88.7811
lhand -20.855 -10.8453
lfingers 7.12502
lthumb 5.51439 19.063
rfemur 29.2739 -10.1498 17.7005
rtibia 12.0658
rfoot -23.4199 -3.87033
rtoes -12.1435
lfemur -11.8293 2.8057 -18.1815
ltibia 33.0884
lfoot -8.32426 10.8801
ltoes -16.6184
827
root 9.67403 16.8026 -1.14977 -10.6481 -83.6353 -5.59821
lowerback 35.5972 2.75365 -0.560636
upperback 5.44369 1.91975 -4.48863
thorax -11.8398 0.555839 -5.2651
lowerneck -11.0128 -10.9803 -0.625574
upperneck -1.63533 -15.228 12.5676
head 2.53684 -7.40438 3.27966
rclavicle 1.78906e-014 3.18055e-015
rhumerus 4.93816 5.32284 -60.398
rradius 69.8964
rwrist 13.0692
rhand -14.7938 6.55688
rfingers 7.12502
rthumb 11.3637 -23.1152
lclavicle 1.78906e-014 3.18055e-015
lhumerus 94.1107 119.512 170.544
lradius 10.0813
lwrist -84.1714
lhand -20.7348 -10.9577
lfingers 7.12502
lthumb 5.63042 18.9475
rfemur 29.0184 -10.0665 17.9113
rtibia 11.9893
rfoot -23.6512 -3.98111
rtoes -12.0685
lfemur -12.115 3.04311 -18.1078
ltibia 33.1977
lfoot -8.72665 10.7084
ltoes -16.884
828
root 9.75873 16.7934 -1.1728 -10.1561 -83.6141 -6.1394
lowerback 35.9881 2.62652 -0.26916
upperback 5.34852 1.86825 -4.40972
thorax -12.0942 0.518678 -5.33149
lowerneck -11.1977 -10.9227 -0.843879
upperneck -1.59284 -15.1253 12.5082
head 2.59175 -7.34365 3.2938
rclavicle -3.02153e-014 3.02153e-014
rhumerus 3.28238 6.30046 -62.2943
rradius 69.8737
rwrist 13.2615
rhand -15.1241 6.30218
rfingers 7.12502
rthumb 11.045 -23.3872
lclavicle -3.02153e-014 3.02153e-014
lhumerus 97.5761 119.781 175.531
lradius 10.224
lwrist -80.9988
lhand -20.7091 -11.3051
lfingers 7.12502
lthumb 5.65523 18.5995
rfemur 28.7212 -10.1339 18.1095
rtibia 12.0064
rfoot -23.815 -4.0417
rtoes -12.1876
lfemur -12.4058 3.24722 -17.9817
ltibia 33.3215
lfoot -9.18204 10.4972
ltoes -17.3237
829
root 9.84162 16.7852 -1.19687 -10.0185 -83.5472 -6.33661
lowerback 36.3845 2.50737 -0.0417693
upperback 5.26442 1.80841 -4.3076
thorax -12.3396 0.479692 -5.33341
lowerneck -11.3888 -10.8679 -1.06088
upperneck -1.55653 -15.021 12.4015
head 2.64038 -7.28318 3.29224
rclavicle -7.15625e-015 3.65764e-014
rhumerus 1.6673 7.1307 -64.1773
rradius 69.6917
rwrist 13.519
rhand -15.4216 6.10045
rfingers 7.12502
rthumb 10.7581 -23.6041
lclavicle -7.15625e-015 3.65764e-014
lhumerus 100.897 120.139 180.386
lradius 10.3197
lwrist -77.8717
lhand -20.6288 -11.6426
lfingers 7.12502
lthumb 5.73279 18.2599
rfemur 28.4074 -10.1893 18.2827
rtibia 12.1099
rfoot -23.9541 -4.11684
rtoes -12.2181
lfemur -12.6857 3.48985 -17.9032
ltibia 33.4551
lfoot -9.5668 10.2072
ltoes -17.8119
830
root 9.92155 16.7786 -1.21983 -9.60736 -83.4694 -6.78968
lowerback 36.8015 2.37738 0.206387
upperback 5.1274 1.7468 -4.19959
thorax -12.5325 0.440187 -5.34922
lowerneck -11.5896 -10.8155 -1.18402
upperneck -1.59016 -14.9244 12.2725
head 2.65617 -7.23135 3.26805
rclavicle -2.22639e-014 -1.59028e-014
rhumerus 0.12183 7.73971 -66.1257
rradius 69.2959
rwrist 13.9093
rhand -15.63 6.00797
rfingers 7.12502
rthumb 10.5571 -23.7069
lclavicle -2.22639e-014 -1.59028e-014
lhumerus 103.816 120.488 184.746
lradius 10.3913
lwrist -75.0715
lhand -20.5207 -11.94
lfingers 7.12502
lthumb 5.83714 17.9596
rfemur 28.0438 -10.3063 18.4503
rtibia 12.2999
rfoot -24.0755 -4.15977
rtoes -12.1279
lfemur -12.974 3.72543 -17.8054
ltibia 33.5952
lfoot -9.84438 9.90829
ltoes -17.8222
831
root 9.99927 16.7717 -1.24196 -9.10476 -83.3552 -7.34563
lowerback 37.1332 2.23974 0.452563
upperback 5.07507 1.68379 -4.06727
thorax -12.7173 0.40024 -5.32035
lowerneck -11.7692 -10.7503 -1.263
upperneck -1.64788 -14.8104 12.1046
head 2.65054 -7.17393 3.22674
rclavicle 3.97569e-016 4.77083e-015
rhumerus -1.39175 8.18218 -68.0291
rradius 68.8013
rwrist 14.3996
rhand -15.6343 5.92379
rfingers 7.12502
rthumb 10.553 -23.7913
lclavicle 3.97569e-016 4.77083e-015
lhumerus 106.726 120.953 189.161
lradius 10.4937
lwrist -72.3241
lhand -20.3706 -12.2447
lfingers 7.12502
lthumb 5.98199 17.6509
rfemur 27.6633 -10.4537 18.6206
rtibia 12.5656
rfoot -24.1935 -4.21819
rtoes -12.2774
lfemur -13.2503 3.94074 -17.7093
ltibia 33.7354
lfoot -10.0435 9.65545
ltoes -17.8732
832
root 10.0737 16.7649 -1.26341 -8.78926 -83.2278 -7.72322
lowerback 37.4143 2.11592 0.660811
upperback 5.07547 1.62446 -3.93181
thorax -12.8221 0.364274 -5.26458
lowerneck -12.0328 -10.6863 -1.20304
upperneck -1.73433 -14.7112 11.8504
head 2.62965 -7.12579 3.12837
rclavicle -7.27552e-014 6.04305e-014
rhumerus -2.77495 8.39303 -69.9242
rradius 68.1559
rwrist 15.0307
rhand -15.5242 5.80077
rfingers 7.12502
rthumb 10.6591 -23.9089
lclavicle -7.27552e-014 6.04305e-014
lhumerus 108.795 121.204 192.557
lradius 10.5713
lwrist -70.2944
lhand -20.1692 -12.5327
lfingers 7.12502
lthumb 6.1765 17.3573
rfemur 27.2792 -10.5582 18.7893
rtibia 12.8994
rfoot -24.3349 -4.31433
rtoes -12.3435
lfemur -13.5169 4.18424 -17.6393
ltibia 33.8704
lfoot -10.2169 9.37882
ltoes -17.9173
833
root 10.1442 16.7591 -1.2832 -8.33134 -83.0908 -8.23675
lowerback 37.5822 2.00075 0.842672
upperback 5.15579 1.57232 -3.75885
thorax -12.7924 0.335505 -5.14953
lowerneck -12.4477 -10.6095 -1.07679
upperneck -1.8116 -14.6077 11.5613
head 2.62976 -7.07245 3.00016
rclavicle -2.0276e-014 1.43125e-014
rhumerus -3.96994 8.41599 -71.73
rradius 67.3502
rwrist 15.7469
rhand -15.299 5.74761
rfingers 7.12502
rthumb 10.8764 -23.9507
lclavicle -2.0276e-014 1.43125e-014
lhumerus 110.245 121.208 195.243
lradius 10.6353
lwrist -68.878
lhand -19.9485 -12.7977
lfingers 7.12502
lthumb 6.38951 17.0859
rfemur 26.8759 -10.6701 18.9645
rtibia 13.2728
rfoot -24.4588 -4.41582
rtoes -12.3221
lfemur -13.7775 4.36671 -17.5665
ltibia 34.0119
lfoot -10.3636 9.16984
ltoes -18.1196
